<svg xmlns="http://www.w3.org/2000/svg" viewBox="0 0 1000 1000" role="img"><path d="M230 300 Q280 360 300 515 L278 760 Q245 650 245 420 Z" fill="#f7f5ef"/><path d="M770 300 Q720 360 700 515 L722 760 Q755 650 755 420 Z" fill="#f7f5ef"/><path d="M98 190 L182 380 264 350 250 292 175 318 115 174 Z" fill="#f7f5ef"/><path d="M902 190 L818 380 736 350 750 292 825 318 885 174 Z" fill="#f7f5ef"/><path d="M405 58 Q500 108 595 58 L570 145 500 184 430 145 Z" fill="#f7f5ef"/><path d="M430 72 Q500 107 570 72 L550 125 500 151 450 125 Z" fill="#d71920"/><g transform="translate(300 128)"><path d="M0 0 Q60 -28 120 0 L105 105 Q60 135 15 105 Z" fill="#f7f5ef" stroke="#b8b3a8" stroke-width="7"/><text x="60" y="45" text-anchor="middle" fill="#171717" font-family="Arial" font-size="28" font-weight="900">זוכה</text><text x="60" y="76" text-anchor="middle" fill="#171717" font-family="Arial" font-size="28" font-weight="900">בגביע</text></g><g transform="translate(295 230)" fill="none" stroke="#f7f5ef" stroke-width="14"><path d="M0 0 L55 -28 110 0 55 28 Z"/><path d="M24 0 L55 -15 86 0 55 15 Z"/></g><g transform="translate(655 230)"><circle r="76" fill="#d71920" stroke="#f7f5ef" stroke-width="13"/><circle r="60" fill="none" stroke="#f7f5ef" stroke-width="3"/><path d="M-35 0 H10 M-3 -42 V36 M-3 -22 L-29 20 M-3 -22 L31 9" fill="none" stroke="#f7f5ef" stroke-width="9" stroke-linecap="round"/><text y="56" text-anchor="middle" fill="#f7f5ef" font-family="Arial" font-size="20" font-weight="700">הפועל תל־אביב</text><text y="82" text-anchor="middle" fill="#f7f5ef" font-family="Arial" font-size="18">1923</text><text x="-28" y="-95" fill="#f7f5ef" font-size="45">★</text><text x="18" y="-95" fill="#f7f5ef" font-size="45">★</text></g><g transform="translate(250 420)"><ellipse cx="250" cy="80" rx="150" ry="68" fill="#173f8a" stroke="#f7f5ef" stroke-width="8"/><g fill="#f7f5ef"><path d="M170 80 l28 -12 12 -28 12 28 28 12-28 12-12 28-12-28z"/><circle cx="260" cy="60" r="12"/><circle cx="300" cy="96" r="10"/><circle cx="332" cy="67" r="9"/></g><text x="250" y="220" text-anchor="middle" fill="#f7f5ef" font-family="Arial" font-size="92" font-weight="700" letter-spacing="5">SUBARU</text></g></svg>
